<?xml version="1.0" standalone="no"?>
<!DOCTYPE svg PUBLIC "-//W3C//DTD SVG 20010904//EN"
 "http://www.w3.org/TR/2001/REC-SVG-20010904/DTD/svg10.dtd">
<svg version="1.0" xmlns="http://www.w3.org/2000/svg"
 width="288.000000pt" height="288.000000pt" viewBox="0 0 288.000000 288.000000"
 preserveAspectRatio="xMidYMid meet">
<metadata>
Created by potrace 1.16, written by Peter Selinger 2001-2019
</metadata>
<g transform="translate(0.000000,288.000000) scale(0.056250,-0.056250)"
fill="#000000" stroke="none">
<path d="M1955 5098 c-31 -23 -45 -38 -45 -50 0 -5 10 1 23 11 12 11 33 29 47
40 33 27 13 26 -25 -1z"/>
<path d="M1994 5065 c-117 -58 -209 -128 -317 -240 -109 -113 -250 -351 -241
-409 1 -9 -2 -16 -7 -16 -4 0 -6 -7 -3 -15 4 -8 1 -22 -6 -30 -10 -12 -10 -15
2 -15 10 0 18 14 22 38 4 20 9 50 12 67 3 16 17 49 31 73 l26 44 23 -74 c13
-41 33 -85 44 -98 18 -21 25 -22 86 -16 64 7 182 48 195 68 3 5 8 8 10 7 2 -2
32 12 67 29 71 36 72 37 72 19 0 -18 -118 -94 -193 -124 -34 -13 -66 -29 -72
-35 -30 -31 166 57 223 100 17 13 32 21 32 18 0 -19 -50 -93 -134 -199 -96
-121 -120 -172 -131 -274 -2 -21 -5 -38 -6 -38 -1 0 -3 -9 -5 -20 -7 -45 -13
-74 -33 -165 -13 -61 -17 -98 -11 -104 7 -7 10 -2 10 12 0 11 9 59 20 106 11
46 22 99 25 118 16 92 38 186 50 216 12 27 96 147 115 162 14 11 89 118 104
148 9 18 14 38 10 44 -4 7 -3 8 4 4 7 -4 13 -2 13 3 1 6 3 16 4 21 1 6 3 14 4
20 0 5 20 22 44 37 54 36 81 61 158 152 82 97 148 161 166 161 8 0 22 -4 32
-10 10 -5 40 -12 67 -16 27 -3 78 -20 114 -37 82 -39 198 -52 187 -21 -6 17
-6 17 6 3 11 -15 16 -15 46 -3 29 12 36 12 62 -3 16 -10 29 -22 29 -29 0 -33
113 -75 215 -79 134 -5 228 -60 321 -187 63 -85 79 -143 89 -322 3 -49 12
-127 21 -173 8 -46 14 -88 12 -93 -2 -6 -14 11 -27 37 -25 48 -147 175 -158
166 -6 -5 -62 10 -59 16 4 5 -29 9 -119 11 -16 1 -31 -4 -33 -9 -2 -6 -8 -9
-13 -5 -5 3 -9 0 -9 -6 0 -6 -5 -8 -12 -4 -7 5 -8 3 -3 -6 6 -10 4 -12 -9 -7
-10 4 -15 3 -11 -3 3 -5 -3 -18 -15 -30 -11 -11 -20 -24 -20 -29 0 -5 -15 -20
-32 -34 -64 -48 -78 -65 -98 -110 -29 -65 -19 -113 55 -270 20 -42 40 -75 45
-72 9 6 5 18 -53 134 -43 87 -55 149 -37 192 18 43 146 169 159 156 7 -7 28
-6 65 3 67 16 120 8 193 -27 66 -33 116 -88 133 -148 13 -48 36 -51 26 -4 -21
106 -166 209 -286 205 -30 -2 -72 -6 -94 -11 -37 -8 -38 -7 -27 13 19 35 63
52 118 46 133 -15 201 -57 286 -181 36 -51 36 -52 29 -130 -3 -43 -5 -175 -4
-293 2 -184 -3 -270 -23 -360 -17 -80 -66 -195 -102 -239 -40 -49 -103 8 -127
114 -15 67 -27 83 -79 105 -76 33 -103 62 -113 125 -10 58 -39 163 -51 188
-16 32 -28 36 -20 7 3 -11 2 -20 -2 -20 -3 0 -12 -9 -19 -20 -11 -19 -11 -19
7 -8 11 7 22 10 25 7 7 -6 33 -112 39 -155 10 -67 46 -111 112 -138 55 -23 74
-43 81 -85 7 -39 46 -125 66 -144 24 -23 72 -20 95 5 30 32 77 139 96 218 31
127 35 203 26 424 -3 67 0 144 8 200 13 82 13 156 0 226 -21 116 -25 151 -28
255 -1 44 -8 105 -15 135 -17 70 -17 79 1 56 8 -10 12 -24 8 -29 -4 -6 0 -8
10 -4 12 4 29 -10 60 -51 59 -76 71 -102 102 -212 22 -77 82 -219 72 -170 -5
30 -79 256 -93 290 -18 40 -58 102 -92 141 -12 14 -28 34 -35 43 -7 9 -21 18
-32 20 -11 2 -37 27 -57 57 -104 149 -192 202 -353 213 -68 5 -112 14 -167 37
-34 14 -28 29 10 24 53 -7 128 -16 167 -20 108 -12 133 -19 206 -56 43 -21 82
-39 85 -38 4 0 10 -3 13 -8 3 -6 35 -26 69 -47 82 -47 87 -53 90 -100 2 -21
10 -52 18 -67 16 -31 103 -101 116 -93 5 3 8 1 8 -4 0 -5 6 -9 13 -9 6 -1 27
-6 45 -11 17 -6 32 -9 32 -7 0 1 -37 21 -83 43 -46 23 -91 50 -101 61 -19 21
-38 98 -26 106 12 8 251 -155 296 -201 44 -47 71 -104 58 -126 -5 -10 -4 -10
6 -1 19 18 4 76 -33 125 -26 35 -218 175 -325 237 -7 4 -14 18 -17 32 -10 51
-38 129 -47 129 -5 0 -6 5 -3 10 3 6 -3 23 -14 39 -12 16 -21 32 -21 35 0 16
-97 151 -141 197 -27 28 -57 64 -66 80 -21 36 -87 69 -134 68 l-34 -1 42 -13
c65 -21 97 -43 131 -94 53 -78 40 -164 -32 -206 -53 -31 -75 -35 -226 -40
-103 -4 -130 -2 -148 11 -12 8 -22 18 -22 23 0 4 20 17 44 28 131 64 204 210
137 276 l-22 22 -32 -35 c-51 -56 -82 -100 -120 -175 -33 -65 -79 -125 -95
-125 -4 0 -6 37 -5 83 1 45 -3 100 -8 122 -11 44 -56 116 -77 123 -7 2 1 -16
18 -41 41 -61 57 -113 50 -167 l-5 -45 -16 30 c-99 183 -134 230 -167 223 -8
-2 -24 -15 -35 -30 -34 -46 -18 -90 66 -169 39 -38 73 -66 75 -64 2 2 -25 33
-61 68 -65 65 -85 106 -72 146 16 52 63 26 110 -62 16 -29 46 -78 67 -110 41
-64 44 -73 26 -79 -20 -8 -38 2 -38 20 0 13 -2 14 -9 4 -7 -11 -14 -11 -42 4
-34 17 -90 54 -99 65 -12 14 -149 10 -179 -6 -30 -15 -33 -15 -74 9 -52 31
-156 59 -194 52 -15 -2 -45 -5 -66 -5 -28 -1 -36 -4 -31 -13 6 -10 5 -10 -8
-1 -8 7 -18 10 -21 7 -9 -10 -97 -11 -97 -1 0 4 -4 5 -10 2 -5 -3 -10 -1 -10
5 0 6 -4 9 -9 6 -5 -3 -14 1 -22 10 -10 13 -9 16 9 21 12 3 22 9 22 13 0 4 41
27 90 51 50 23 90 47 90 51 0 12 3 13 -116 -47z m1102 -5 c-9 -47 -71 -136
-117 -170 -23 -16 -44 -29 -46 -27 -6 6 48 98 96 165 50 68 77 82 67 32z m6
-87 c-27 -53 -49 -75 -106 -112 -68 -42 -94 -40 -30 3 61 42 100 86 128 146
16 36 21 41 24 23 2 -12 -6 -39 -16 -60z m-1191 -22 c24 -11 47 -17 51 -15 4
3 8 1 8 -3 0 -9 146 1 190 13 14 4 30 6 35 5 9 -3 32 -7 80 -15 32 -6 94 -38
99 -52 3 -9 -10 -12 -52 -11 -53 1 -93 -3 -182 -19 -19 -4 -53 -16 -75 -26
-46 -23 -137 -107 -129 -120 3 -5 2 -7 -3 -6 -4 2 -28 -11 -53 -28 -77 -54
-122 -73 -210 -91 -25 -5 -67 7 -89 26 -25 22 -27 31 -5 31 8 0 13 4 9 10 -7
12 32 37 67 44 16 2 65 25 110 51 133 74 220 113 263 119 41 6 67 11 120 22
17 3 63 6 103 7 39 0 70 2 68 4 -12 13 -113 18 -156 9 -14 -3 -43 -8 -65 -11
-22 -4 -47 -7 -55 -9 -69 -13 -91 -20 -96 -27 -3 -5 -10 -7 -15 -4 -5 4 -9 1
-9 -5 0 -6 -4 -8 -10 -5 -5 3 -10 1 -10 -6 0 -7 -3 -10 -6 -7 -3 4 -42 -15
-87 -41 -88 -50 -121 -66 -180 -87 l-37 -13 14 27 c15 30 240 252 255 252 5 0
28 -9 52 -19z m1578 -96 c29 -41 122 -208 123 -222 1 -4 5 -23 9 -40 4 -18 5
-33 2 -33 -3 0 -31 15 -62 34 -147 90 -249 132 -337 141 -68 6 -83 15 -28 16
59 1 85 7 134 32 52 27 79 71 80 132 l0 40 25 -30 c14 -16 38 -48 54 -70z
m-864 25 c22 -12 42 -25 45 -29 3 -4 26 -18 53 -31 26 -14 47 -29 47 -34 0
-16 -79 2 -142 32 -38 19 -86 33 -122 37 -33 3 -62 8 -65 11 -3 3 5 13 18 23
32 25 114 20 166 -9z m-275 -28 c0 -14 -56 -57 -76 -58 -65 -3 -192 -109 -239
-199 -31 -58 -64 -84 -162 -130 -24 -11 -43 -23 -43 -27 0 -4 -9 -5 -20 -3
-11 2 -20 0 -20 -4 0 -5 -9 -11 -20 -14 -12 -3 12 29 61 81 75 81 129 162 129
195 0 26 78 103 122 121 24 10 51 22 61 27 11 6 17 5 17 -1 0 -7 6 -7 20 0 11
6 20 8 20 5 0 -3 8 -1 18 4 20 12 132 15 132 3z m-82 -91 c-1 -5 -34 -44 -73
-86 -68 -75 -151 -142 -162 -131 -19 19 117 179 179 209 37 18 61 22 56 8z
m-341 -114 c-2 -7 -4 -14 -3 -17 0 -3 -13 -21 -29 -40 -88 -101 -135 -145
-185 -169 -90 -45 -121 -34 -150 54 -30 91 -33 114 -15 121 8 3 21 -1 30 -10
46 -46 163 -26 280 48 64 41 84 45 72 13z m-187 -231 c0 -3 -4 -8 -10 -11 -5
-3 -10 -1 -10 4 0 6 5 11 10 11 6 0 10 -2 10 -4z"/>
<path d="M3402 5074 c42 -59 98 -107 156 -135 36 -18 61 -22 116 -21 53 2 77
-3 103 -18 39 -23 45 -8 6 17 -19 13 -49 18 -104 19 -63 1 -86 6 -127 29 -53
29 -98 68 -140 123 -38 50 -47 38 -10 -14z"/>
<path d="M1825 5028 c-33 -10 -80 -29 -105 -41 -64 -32 -160 -125 -203 -199
-20 -34 -53 -81 -73 -103 -51 -58 -92 -119 -116 -172 -18 -40 -21 -72 -24
-217 -2 -94 -6 -195 -9 -225 -5 -56 -54 -163 -121 -268 -52 -81 -67 -149 -60
-263 3 -54 12 -118 21 -143 21 -62 164 -296 187 -305 14 -6 8 -26 -32 -104
-22 -43 -36 -78 -31 -78 6 0 24 28 41 63 42 83 47 87 71 58 26 -32 23 -70 -15
-186 -37 -111 -40 -165 -12 -255 14 -45 37 -90 46 -90 5 0 7 -12 4 -27 -4 -22
-3 -24 10 -14 11 9 16 9 21 0 4 -6 3 -14 -3 -18 -6 -3 -14 -19 -17 -34 -4 -15
-10 -27 -14 -27 -3 0 -20 -13 -36 -29 -33 -30 -64 -48 -80 -46 -5 1 -43 7 -84
14 -103 18 -261 0 -261 -30 0 -5 -3 -8 -8 -7 -4 1 -25 -9 -47 -23 -22 -13 -43
-25 -47 -25 -5 -1 -9 -3 -10 -4 -2 -1 -16 -4 -33 -5 -16 -2 -30 -4 -30 -5 0
-3 -40 -12 -62 -14 -11 0 -19 -4 -16 -8 2 -5 -3 -8 -11 -8 -9 0 -16 -5 -16
-11 0 -5 -4 -8 -9 -5 -5 3 -14 -1 -21 -9 -7 -8 -16 -13 -20 -10 -5 3 -11 1
-15 -5 -4 -6 -11 -8 -16 -5 -5 4 -9 2 -9 -4 0 -6 -23 -9 -54 -8 -30 1 -52 -1
-50 -5 2 -4 -8 -7 -23 -7 -39 0 -139 -17 -155 -27 -8 -5 -22 -9 -77 -20 -65
-13 -134 -63 -163 -117 -8 -16 -7 -17 9 -8 10 5 33 26 51 45 33 34 90 59 162
71 19 3 37 9 40 13 3 4 16 8 30 9 23 1 72 8 130 19 14 2 45 6 70 8 26 2 76 19
115 39 66 32 88 40 159 53 16 3 59 22 95 43 36 22 86 44 111 51 54 15 190 6
205 -13 6 -7 17 -12 25 -12 71 5 248 -154 723 -646 281 -293 386 -351 632
-353 170 -2 325 55 325 119 0 30 -27 39 -56 20 -13 -9 -24 -11 -24 -6 0 5 9
12 19 16 21 6 66 48 89 83 14 21 13 25 0 39 -20 20 -35 11 -43 -27 -12 -53
-80 -110 -125 -103 -28 3 -74 49 -64 64 10 17 -7 49 -27 49 -12 0 -37 -17 -57
-38 -45 -45 -62 -49 -120 -26 -56 21 -98 57 -119 102 -30 63 -74 97 -160 125
-109 35 -224 92 -267 133 -33 32 -51 39 -84 35 -10 -2 -69 56 -135 133 -10 11
-57 63 -105 115 -134 144 -179 208 -173 244 1 5 -3 6 -8 3 -5 -3 -17 6 -26 21
-12 18 -14 28 -7 31 7 2 12 10 12 18 0 8 6 11 15 8 8 -4 15 -12 15 -20 0 -8 7
-14 15 -14 18 0 19 -12 4 -27 -9 -9 -7 -11 7 -8 14 3 33 -12 69 -57 118 -144
270 -298 295 -298 8 0 -17 31 -55 68 -80 78 -138 141 -210 227 -51 61 -100
118 -123 141 -8 8 -10 25 -7 46 7 37 7 92 1 153 -3 22 -6 66 -7 98 -1 31 -5
60 -10 63 -5 2 -5 -37 -2 -88 9 -136 7 -228 -6 -241 -8 -8 -11 -8 -11 0 0 6
-6 18 -13 25 -7 7 -26 39 -41 70 -35 71 -40 152 -15 228 10 30 15 58 13 62 -3
4 0 8 7 8 7 0 10 3 6 6 -3 3 -1 18 4 33 6 14 12 48 14 74 3 46 1 51 -41 93
-24 24 -68 81 -98 126 -118 184 -135 231 -137 370 -1 86 19 145 89 266 92 161
94 167 98 331 8 319 15 348 111 462 25 30 69 90 98 134 29 44 71 98 93 121 44
44 128 102 158 109 11 2 33 8 51 14 17 5 34 7 37 3 3 -3 6 0 6 6 0 7 7 12 15
12 8 0 15 5 15 10 0 12 0 12 -75 -12z m-376 -2715 c46 -78 111 -154 307 -362
40 -42 91 -101 115 -131 163 -208 292 -304 534 -401 85 -33 176 -31 247 5 30
16 54 23 56 17 6 -18 67 -50 98 -52 16 -1 44 1 62 5 28 6 33 4 30 -11 -3 -19
-53 -51 -90 -58 -121 -25 -160 -29 -243 -27 -210 4 -328 75 -603 361 -332 347
-507 517 -585 570 l-78 52 38 28 c21 15 44 35 52 44 7 9 16 17 20 17 3 0 22
-26 40 -57z m472 -484 c11 -5 17 -14 14 -20 -4 -5 3 -9 13 -9 11 0 23 -7 26
-16 3 -8 2 -12 -4 -9 -27 17 -3 -14 58 -75 74 -74 122 -98 213 -107 42 -4 64
-2 75 8 14 12 19 11 31 -6 71 -100 86 -115 142 -142 33 -15 60 -32 60 -36 1
-5 -23 -5 -51 -2 -65 8 -317 127 -395 186 -59 44 -127 111 -158 154 -11 16
-24 33 -30 39 -29 32 -37 46 -26 46 7 0 21 -5 32 -11z m176 -104 c51 -25 97
-45 102 -45 6 0 35 -9 66 -21 104 -39 52 -62 -76 -33 -65 15 -77 22 -137 80
-37 35 -63 63 -58 64 5 0 51 -20 103 -45z m832 -221 c-15 -18 -22 -13 -13 10
3 9 10 13 16 10 5 -3 4 -12 -3 -20z m-234 -24 c0 -14 -86 -62 -95 -54 -3 3 13
21 34 40 39 34 61 40 61 14z"/>
<path d="M3600 4342 c0 -7 18 -45 40 -85 45 -83 69 -145 77 -202 3 -22 6 -42
6 -45 1 -5 -11 -87 -18 -125 -3 -11 -7 -42 -9 -70 -3 -27 -9 -61 -12 -75 -4
-14 -8 -88 -9 -165 -1 -88 -6 -151 -14 -170 -22 -51 -24 -67 -25 -168 -1 -61
3 -100 10 -105 13 -8 44 -99 50 -145 2 -18 7 -52 10 -76 3 -25 10 -54 16 -64
7 -14 7 -17 -1 -13 -18 12 -12 -20 9 -46 10 -14 16 -28 13 -32 -7 -6 -13 -29
-15 -53 -1 -7 -5 -13 -10 -13 -4 0 -8 -4 -8 -10 0 -5 -14 -32 -30 -60 -17 -28
-32 -60 -33 -70 -2 -11 -7 -23 -11 -27 -4 -5 -6 3 -4 16 1 13 -3 26 -9 28 -9
3 -13 -7 -14 -29 0 -18 -2 -45 -3 -60 -1 -18 3 -28 12 -28 7 0 12 6 11 13 -3
25 1 50 7 44 4 -4 35 51 70 120 54 109 62 133 57 163 -7 35 -7 107 -2 190 3
61 -6 103 -41 179 -17 35 -30 67 -30 71 0 5 13 21 28 37 56 55 110 163 119
234 5 37 -13 85 -39 107 -13 10 -52 19 -91 21 -17 1 -18 7 -13 59 7 56 13 97
16 97 0 0 3 18 5 40 2 22 7 51 10 65 14 63 16 143 5 192 -19 81 -129 302 -130
260z m171 -748 c52 -26 60 -76 28 -164 -26 -72 -99 -170 -126 -170 -21 0 -15
-29 17 -81 39 -64 63 -150 56 -202 -3 -23 -5 -57 -5 -76 -1 -19 -3 -32 -6 -29
-6 6 -9 20 -20 93 -3 22 -15 69 -27 105 -12 36 -21 67 -20 70 0 3 -4 10 -8 16
-14 16 -3 185 15 234 15 41 20 117 12 190 -2 14 -2 28 0 32 5 9 50 0 84 -18z"/>
<path d="M1417 4324 c-4 -4 -7 -14 -7 -23 0 -11 3 -12 11 -4 6 6 10 16 7 23
-2 6 -7 8 -11 4z"/>
<path d="M1708 4313 c-18 -21 -31 -43 -25 -43 2 0 13 14 25 30 25 33 24 41 0
13z"/>
<path d="M2377 4284 c-1 -1 -15 -5 -30 -8 -15 -3 -38 -8 -52 -11 -93 -19 -252
-114 -299 -177 -31 -43 -13 -43 45 1 134 102 313 115 472 35 44 -23 49 -23 77
-9 32 17 50 59 31 78 -15 15 -14 27 3 21 22 -8 38 -52 26 -74 -15 -29 -12 -35
9 -16 27 25 19 63 -20 100 -18 17 -36 30 -39 29 -3 -2 -26 4 -53 13 -41 14
-161 26 -170 18z m150 -35 c48 -15 83 -47 83 -75 0 -37 -26 -40 -58 -7 -41 45
-89 65 -165 71 -73 5 -80 11 -20 19 21 3 39 6 41 8 5 5 88 -6 119 -16z m-66
-46 c45 -21 96 -60 88 -68 -3 -2 -17 2 -31 9 -24 13 -84 35 -118 44 -33 9
-150 10 -185 2 -46 -10 -35 4 20 25 54 20 168 14 226 -12z"/>
<path d="M1401 4218 c-1 -34 -4 -79 -6 -100 -3 -22 -1 -38 5 -38 5 0 10 12 11
28 2 91 7 151 13 161 4 6 1 11 -7 11 -10 0 -14 -16 -16 -62z"/>
<path d="M1543 4188 c-52 -56 -75 -125 -33 -97 11 6 11 9 2 9 -16 0 8 41 52
88 16 17 25 32 20 32 -6 0 -24 -15 -41 -32z"/>
<path d="M1637 4115 c-29 -28 -51 -63 -62 -94 -16 -49 -42 -72 -55 -50 -4 6
-10 10 -14 10 -17 -2 -19 0 -8 11 8 8 15 8 26 -2 13 -10 17 -9 22 3 3 9 4 24
1 34 -4 14 -5 13 -6 -4 -1 -24 -15 -30 -27 -12 -3 6 -1 15 6 19 19 12 4 40
-20 40 -12 0 -18 -4 -15 -10 3 -5 -1 -10 -10 -10 -9 0 -13 -5 -10 -11 5 -7 14
-4 26 7 11 9 22 14 27 10 4 -4 -1 -13 -10 -20 -10 -7 -15 -16 -11 -19 8 -9
-27 -47 -44 -47 -7 0 -13 -4 -13 -10 0 -17 27 -11 34 7 5 12 9 14 18 5 9 -9 7
-15 -8 -27 -10 -8 -15 -15 -10 -15 5 0 17 7 26 15 15 14 18 14 23 1 4 -10 -2
-17 -15 -22 -21 -6 -21 -7 -4 -20 16 -11 16 -15 4 -33 -8 -12 -18 -18 -23 -13
-4 4 -6 -3 -3 -14 5 -18 2 -21 -16 -16 -11 3 -18 2 -14 -3 4 -4 -2 -17 -13
-28 -17 -19 -21 -20 -29 -7 -15 23 -12 48 6 58 15 8 15 13 3 38 -8 17 -24 30
-36 32 -21 3 -22 5 -9 35 7 18 14 35 14 40 1 4 2 8 3 10 0 1 2 9 4 17 1 8 4
20 6 25 2 6 0 11 -5 13 -5 1 -10 -8 -12 -21 -4 -37 -32 -97 -45 -97 -7 0 -10
-3 -6 -6 3 -4 -4 -27 -17 -53 -50 -99 -78 -221 -75 -326 5 -164 54 -309 131
-388 26 -27 49 -56 49 -66 1 -9 3 -29 4 -46 1 -16 5 -42 8 -57 5 -18 3 -28 -3
-28 -6 0 -8 -4 -5 -10 3 -5 11 -10 17 -10 9 0 6 62 -8 163 l-6 39 36 -6 c32
-5 36 -3 36 16 0 36 9 14 14 -33 3 -29 9 -43 17 -41 9 2 9 -1 3 -10 -14 -18 3
-118 19 -112 8 3 30 -32 57 -88 25 -50 60 -107 78 -125 28 -28 40 -33 80 -33
31 0 60 8 84 23 20 12 59 35 85 51 129 78 204 159 268 292 51 104 61 115 102
112 42 -3 116 44 164 105 23 29 44 53 48 54 3 1 14 -15 24 -37 30 -64 116
-103 147 -65 7 8 21 15 31 15 11 0 19 -7 19 -15 0 -8 7 -15 15 -15 20 0 19 34
-1 55 -24 23 -76 16 -89 -12 -12 -29 -35 -29 -69 -2 -28 22 -61 75 -59 97 0 6
1 19 2 27 0 8 17 30 38 50 20 19 32 35 27 35 -20 0 -53 -32 -85 -82 -75 -121
-159 -195 -217 -190 -40 3 -63 -17 -94 -86 -67 -147 -130 -222 -261 -306 -147
-95 -183 -105 -237 -66 -28 20 -140 224 -140 255 0 8 -8 15 -17 15 -15 0 -15
2 -4 9 11 7 12 13 4 23 -6 7 -11 16 -12 21 0 4 -3 22 -6 40 -15 82 -12 108 17
148 15 21 37 44 48 51 20 13 27 28 12 28 -13 0 -46 -32 -67 -64 l-19 -29 -9
29 c-6 16 -14 34 -19 41 -13 16 -38 5 -38 -16 0 -13 2 -13 9 -2 13 20 24 -3
27 -61 2 -42 0 -49 -13 -44 -13 6 -14 4 -3 -9 10 -12 10 -19 2 -27 -8 -8 -14
-4 -21 15 -12 31 -22 36 -14 8 3 -10 0 -21 -5 -25 -6 -3 -8 8 -6 27 9 76 10
113 1 124 -5 7 -5 18 -1 25 5 7 7 21 6 31 -2 10 3 28 11 40 8 12 13 30 11 40
-1 9 2 17 7 17 5 0 9 7 9 15 0 8 5 15 10 15 6 0 9 3 8 8 -3 7 5 12 22 12 6 0
9 -5 8 -11 -2 -6 3 -14 10 -16 7 -3 10 1 6 10 -4 10 4 21 23 32 26 15 26 15 3
9 -23 -6 -24 -6 -10 11 8 10 14 20 13 22 -8 10 -2 33 7 28 6 -3 10 -1 10 4 0
6 -5 11 -12 11 -6 0 -3 6 7 14 16 12 17 15 3 34 -8 12 -18 19 -21 15 -12 -11
-8 -23 8 -23 8 0 15 -4 15 -10 0 -5 -6 -7 -14 -4 -11 4 -23 -22 -30 -68 -1 -5
-5 -7 -11 -5 -5 1 -10 17 -11 35 -1 31 -29 66 -45 56 -4 -2 -9 3 -13 11 -3 9
0 15 8 15 8 0 16 -7 20 -15 3 -8 10 -15 16 -15 7 0 7 6 0 21 -7 11 -9 27 -6
35 3 8 2 12 -3 9 -6 -3 -22 6 -36 21 -14 14 -25 27 -23 28 21 13 64 53 65 61
3 20 23 16 31 -6 7 -17 11 -19 17 -9 5 8 2 16 -9 22 -22 12 -20 22 9 54 19 20
22 30 13 35 -17 10 -28 2 -21 -16 5 -15 -8 -21 -20 -9 -5 5 0 17 20 53 2 2 9
-2 18 -9 12 -10 15 -9 15 6 0 45 24 96 67 144 58 64 51 76 -10 15z m-267 -215
c0 -5 -4 -10 -10 -10 -5 0 -10 5 -10 10 0 6 5 10 10 10 6 0 10 -4 10 -10z m27
-47 c-3 -3 -11 -2 -17 2 -8 5 -7 11 2 22 12 15 13 14 16 -1 2 -10 1 -20 -1
-23z m-32 -13 c37 -72 39 -79 23 -97 -9 -10 -31 -49 -50 -88 -27 -58 -33 -81
-32 -135 0 -75 23 -123 85 -182 39 -36 47 -52 31 -62 -5 -3 -7 -18 -5 -33 3
-21 -1 -31 -17 -41 -12 -7 -23 -12 -24 -10 -2 2 -14 19 -28 38 -32 43 -73 157
-84 230 -17 118 -1 236 47 358 23 57 33 61 54 22z m77 -118 c-5 -15 -3 -15 10
-4 10 8 18 9 22 3 4 -6 -2 -15 -12 -20 -15 -8 -23 -6 -37 9 -19 21 -13 42 10
34 8 -3 11 -12 7 -22z m-26 -24 c9 -7 26 -22 38 -33 12 -11 26 -20 30 -20 5 0
12 -10 17 -22 5 -14 5 -23 -1 -23 -5 0 -7 -7 -4 -15 4 -8 1 -15 -5 -15 -6 0
-10 -3 -10 -7 3 -21 -2 -33 -13 -27 -7 4 -8 3 -4 -5 4 -7 4 -20 0 -29 -7 -18
-11 -29 -18 -59 -3 -10 -5 -19 -6 -20 -2 -2 -3 -6 -5 -10 -20 -76 -22 -77 -59
-28 -41 54 -58 103 -52 149 9 71 11 81 17 86 4 3 16 24 28 48 24 46 25 47 47
30z m124 -157 c0 -4 -11 -7 -24 -7 -20 0 -22 3 -13 17 8 13 15 15 24 7 7 -6
13 -13 13 -17z m-122 -376 c-9 -9 -30 14 -23 25 6 9 10 8 17 -4 6 -10 8 -19 6
-21z m139 -177 c-3 -8 -6 -5 -6 6 -1 11 2 17 5 13 3 -3 4 -12 1 -19z"/>
<path d="M1460 4010 c-8 -5 -11 -12 -7 -16 4 -4 13 -2 19 4 15 15 7 24 -12 12z"/>
<path d="M2348 4015 c-2 -2 -21 -6 -43 -9 -72 -12 -245 -98 -245 -122 0 -18
22 -18 89 0 60 15 68 9 57 -44 -4 -24 -1 -32 16 -41 32 -17 317 -16 349 1 52
28 63 73 30 119 -21 29 -117 81 -160 87 -14 2 -40 5 -58 8 -17 2 -33 3 -35 1z
m115 -36 c21 -5 47 -19 58 -30 10 -10 21 -18 25 -16 3 1 16 -9 30 -22 34 -32
31 -67 -6 -86 -30 -15 -30 -15 -30 11 0 35 -62 95 -114 110 -38 12 -154 8
-203 -5 -2 -1 -4 0 -5 0 -2 1 -22 -8 -45 -20 -58 -29 -55 -20 5 15 93 55 188
69 285 43z m-69 -63 c-6 -14 -33 -30 -41 -23 -9 10 11 37 28 37 12 0 16 -5 13
-14z m110 -60 c16 -20 27 -39 23 -42 -9 -9 -294 -10 -303 -1 -20 20 49 75 71
57 17 -14 98 -16 103 -2 16 50 60 46 106 -12z"/>
<path d="M3850 3886 c0 -9 81 -126 87 -126 5 0 -2 12 -49 79 -21 30 -38 51
-38 47z"/>
<path d="M3155 3849 c-77 -29 -148 -109 -96 -109 10 0 24 -7 31 -15 9 -11 28
-15 59 -14 25 1 67 -1 93 -4 42 -6 46 -5 41 12 -3 10 0 28 6 40 l12 21 39 -20
c34 -17 75 -58 67 -67 -2 -1 -18 1 -35 6 -45 13 -40 -3 9 -24 22 -10 49 -29
59 -42 22 -28 36 -29 43 -3 3 12 14 20 26 20 12 0 21 5 21 10 0 6 -4 10 -8 10
-5 0 -25 27 -47 59 -36 57 -91 104 -145 127 -39 17 -121 14 -175 -7z m133 -4
c6 -6 -12 -8 -44 -6 -27 2 -130 -36 -149 -55 -8 -9 -15 -11 -15 -6 0 13 67 55
86 55 8 0 14 5 14 10 0 6 3 8 6 5 3 -3 17 -3 32 2 27 7 60 5 70 -5z m73 -31
c2 2 18 -10 34 -26 l30 -30 -36 24 c-20 13 -45 29 -55 36 -17 11 -17 12 2 3
12 -6 23 -9 25 -7z m-131 -23 c0 -6 -4 -13 -10 -16 -5 -3 -10 1 -10 9 0 9 5
16 10 16 6 0 10 -4 10 -9z m-80 -52 c0 -5 -14 -9 -32 -9 -30 0 -31 0 -13 20
14 15 21 17 32 9 7 -6 13 -15 13 -20z m98 -14 c3 -3 -6 -5 -21 -5 -14 0 -29 5
-32 10 -7 11 42 6 53 -5z m211 -30 c0 -5 -4 -3 -9 5 -5 8 -9 22 -9 30 0 16 17
-16 18 -35z"/>
<path d="M1579 3816 c-5 -21 -3 -32 5 -38 6 -4 0 -11 -14 -17 -24 -9 -24 -12
0 -15 16 -2 28 -26 23 -46 -3 -10 0 -20 5 -24 6 -3 10 12 9 39 0 25 -4 45 -7
45 -4 0 -5 11 -3 24 3 13 0 27 -6 30 -6 4 -12 5 -12 2z"/>
<path d="M1520 3796 c0 -3 9 -10 20 -16 11 -6 20 -8 20 -6 0 3 -9 10 -20 16
-11 6 -20 8 -20 6z"/>
<path d="M1643 3779 c4 -13 1 -19 -6 -16 -8 3 -12 -10 -11 -42 0 -25 -4 -52
-9 -59 -5 -7 -7 -15 -4 -18 9 -9 28 6 22 17 -4 5 -2 9 2 9 5 0 8 16 8 35 -1
20 2 38 7 41 12 8 10 54 -3 54 -7 0 -9 -9 -6 -21z"/>
<path d="M1560 3710 c0 -5 5 -10 10 -10 6 0 10 5 10 10 0 6 -4 10 -10 10 -5 0
-10 -4 -10 -10z"/>
<path d="M1665 3630 c3 -5 10 -10 16 -10 5 0 9 5 9 10 0 6 -7 10 -16 10 -8 0
-12 -4 -9 -10z"/>
<path d="M1605 3620 c3 -5 10 -10 16 -10 5 0 9 5 9 10 0 6 -7 10 -16 10 -8 0
-12 -4 -9 -10z"/>
<path d="M1666 3603 c-11 -11 -6 -23 9 -23 8 0 15 4 15 9 0 13 -16 22 -24 14z"/>
<path d="M1593 3593 c-7 -3 -13 -9 -13 -15 0 -6 6 -6 15 2 10 8 15 9 15 2 0
-6 7 -9 15 -5 27 10 -5 25 -32 16z"/>
<path d="M1605 3550 c-3 -5 -2 -10 4 -10 5 0 13 5 16 10 3 6 2 10 -4 10 -5 0
-13 -4 -16 -10z"/>
<path d="M1670 3545 c0 -8 5 -15 10 -15 6 0 10 7 10 15 0 8 -4 15 -10 15 -5 0
-10 -7 -10 -15z"/>
<path d="M1620 3530 c-8 -5 -12 -11 -9 -14 2 -3 11 -1 19 4 8 5 12 11 9 14 -2
3 -11 1 -19 -4z"/>
<path d="M2550 3518 c0 -4 -9 -5 -20 -3 -11 2 -22 -1 -25 -6 -4 -5 -11 -7 -16
-4 -5 4 -9 1 -9 -5 0 -6 -4 -9 -8 -6 -5 3 -18 -3 -29 -14 -12 -10 -23 -17 -25
-14 -3 2 -23 -14 -46 -37 -23 -22 -46 -38 -52 -34 -5 3 -8 0 -5 -7 3 -7 -10
-24 -30 -37 -67 -46 -162 -156 -196 -230 -25 -55 -40 -74 -66 -86 -46 -22 -73
-27 -67 -11 3 7 -5 21 -17 32 -22 19 -22 19 -15 -3 6 -18 3 -23 -11 -23 -11 0
-28 -8 -39 -18 -10 -10 -27 -16 -36 -14 -25 5 -22 -15 3 -21 12 -3 28 2 38 12
18 18 65 36 56 21 -3 -5 2 -13 11 -18 12 -7 32 -2 71 17 49 24 57 32 91 101
37 77 90 137 237 269 97 87 153 115 238 117 83 2 80 1 66 17 -12 12 -99 17
-99 5z"/>
<path d="M1562 3493 c-1 -14 1 -23 5 -19 5 4 8 11 8 14 0 4 4 13 8 20 5 7 3
12 -5 12 -8 0 -15 -12 -16 -27z"/>
<path d="M1621 3501 c-10 -6 -9 -10 3 -14 8 -3 18 -2 21 3 8 13 -9 20 -24 11z"/>
<path d="M1668 3498 c9 -9 15 -9 24 0 9 9 7 12 -12 12 -19 0 -21 -3 -12 -12z"/>
<path d="M1504 3463 c-4 -16 -8 -32 -8 -38 -1 -5 -3 -12 -6 -15 -11 -10 -31
-63 -26 -68 10 -9 37 21 32 35 -3 7 0 13 5 13 6 0 9 9 6 20 -3 13 0 20 10 20
10 0 12 6 8 21 -5 14 -3 19 3 15 6 -3 14 -1 18 5 4 8 3 9 -4 5 -7 -4 -12 -2
-12 3 0 22 -18 10 -26 -16z"/>
<path d="M1600 3465 c-7 -9 -11 -17 -9 -19 7 -7 59 6 59 14 0 5 -10 6 -22 2
-14 -3 -19 -2 -14 6 10 17 1 15 -14 -3z"/>
<path d="M1681 3471 c-7 -5 -9 -11 -4 -14 5 -3 15 -2 22 2 7 5 9 11 4 14 -5 3
-15 2 -22 -2z"/>
<path d="M1617 3422 c-11 -13 -12 -19 -3 -27 17 -14 39 -18 31 -5 -3 5 1 13 9
16 9 3 16 11 16 17 0 6 -3 7 -7 4 -3 -4 -12 -2 -18 3 -8 7 -17 4 -28 -8z m28
-13 c-10 -15 -25 -10 -19 6 4 8 10 12 15 9 5 -3 7 -10 4 -15z"/>
<path d="M1685 3430 c-3 -5 1 -10 9 -10 9 0 16 5 16 10 0 6 -4 10 -9 10 -6 0
-13 -4 -16 -10z"/>
<path d="M1693 3400 c-13 -5 -23 -14 -23 -19 0 -7 9 -6 25 1 14 6 25 15 25 20
0 9 2 9 -27 -2z"/>
<path d="M2628 3384 c-17 -16 -6 -21 35 -17 38 5 47 2 70 -23 14 -16 37 -45
49 -64 17 -25 34 -36 61 -42 34 -7 47 -3 101 27 l63 35 33 -22 c40 -28 45 -38
26 -63 -14 -19 -15 -19 -35 -1 -40 37 -129 29 -154 -14 -21 -35 -21 -51 -2
-76 15 -18 16 -17 9 14 -5 27 -1 39 17 58 29 31 69 31 107 -1 38 -32 42 -31
69 6 28 41 14 75 -42 99 -39 17 -41 16 -82 -3 -24 -12 -43 -25 -43 -30 0 -4
-4 -5 -10 -2 -5 3 -10 2 -10 -3 0 -5 -8 -9 -17 -10 -34 -1 -71 20 -83 48 -19
47 -64 82 -112 87 -24 3 -46 1 -50 -3z"/>
<path d="M1706 3371 c-13 -5 -16 -10 -9 -14 7 -4 14 -3 18 2 3 6 12 8 20 4 8
-3 15 0 15 6 0 12 -16 13 -44 2z"/>
<path d="M1770 3345 c0 -8 -5 -15 -11 -15 -5 0 -7 5 -3 12 5 8 0 9 -17 5 -13
-4 -30 -7 -36 -7 -7 0 -13 -4 -13 -10 0 -5 13 -7 30 -3 19 3 30 1 30 -6 0 -6
-3 -11 -7 -12 -42 -4 -61 -14 -49 -26 4 -4 16 -2 26 5 35 21 46 12 15 -13 -16
-13 -26 -27 -23 -30 3 -4 15 4 27 16 12 13 21 19 21 13 0 -5 5 -2 10 6 7 11
12 12 20 4 9 -9 4 -16 -19 -30 -17 -10 -33 -25 -36 -33 -7 -17 11 -38 22 -26
5 4 2 10 -5 12 -16 6 3 33 24 33 8 0 14 5 14 11 0 5 5 7 10 4 16 -10 12 -22
-10 -28 -21 -5 -25 -23 -11 -45 6 -10 13 -10 32 -2 30 14 53 46 39 55 -6 3
-10 1 -10 -6 0 -14 -30 -38 -47 -39 -7 0 -10 7 -7 15 4 8 15 15 25 15 21 0 25
15 7 26 -8 5 -5 11 7 20 10 8 15 17 11 21 -4 4 -11 1 -16 -7 -6 -8 -10 -10
-11 -5 -1 6 -3 15 -4 20 -2 6 -3 14 -4 19 0 5 -8 3 -16 -4 -22 -18 -31 -4 -12
18 19 21 22 32 7 32 -5 0 -10 -7 -10 -15z"/>
<path d="M1832 3170 c-13 -10 -29 -17 -36 -14 -10 4 -14 -2 -12 -20 l1 -26 16
21 c14 19 17 19 22 5 4 -11 -2 -20 -20 -29 -14 -8 -21 -17 -16 -20 6 -4 21 2
33 13 12 11 31 22 41 25 19 7 24 17 12 28 -3 4 -12 -1 -19 -11 -7 -9 -16 -14
-20 -9 -4 4 3 18 16 32 28 29 15 33 -18 5z"/>
<path d="M1860 3095 c0 -8 -6 -12 -14 -9 -7 3 -16 -1 -19 -9 -6 -17 6 -16 45
3 28 13 29 30 2 30 -8 0 -14 -7 -14 -15z"/>
<path d="M1894 3073 c4 -7 2 -13 -4 -13 -6 0 -18 -7 -26 -15 -8 -8 -20 -12
-28 -9 -7 3 -19 -2 -26 -11 -7 -8 -19 -15 -27 -15 -8 0 -11 -5 -7 -11 4 -8 9
-8 17 0 6 6 19 11 30 11 10 0 25 7 34 15 8 8 18 13 23 10 4 -3 13 2 20 11 11
12 11 17 0 27 -10 9 -11 9 -6 0z"/>
<path d="M1793 3063 c-18 -7 -16 -23 2 -23 8 0 15 7 15 15 0 8 -1 15 -2 14 -2
0 -9 -3 -15 -6z"/>
<path d="M2613 2973 c-35 -7 -75 -19 -90 -26 -16 -8 -47 -13 -71 -11 -40 3
-44 1 -57 -29 -17 -41 -8 -56 52 -95 51 -32 178 -86 228 -97 77 -16 152 -16
214 0 72 18 152 56 134 62 -6 2 -25 -2 -40 -11 -40 -20 -184 -56 -196 -49 -6
3 -28 8 -51 10 -84 9 -283 87 -325 128 -24 24 3 42 66 44 32 2 85 4 118 6 33
1 83 -4 110 -12 44 -13 94 -16 175 -9 38 4 71 -11 120 -53 43 -38 59 -41 89
-15 8 7 -109 108 -149 131 -34 18 -45 20 -79 11 -35 -9 -44 -7 -70 11 -34 25
-75 26 -178 4z m155 -20 c25 -12 55 -17 95 -15 45 3 65 -1 92 -18 42 -26 47
-47 6 -26 -21 11 -51 14 -115 10 -48 -2 -93 -1 -99 3 -7 4 -16 8 -22 10 -5 1
-21 4 -34 7 -13 3 -41 6 -62 8 -50 3 -51 23 -2 26 21 2 38 4 40 5 10 10 71 4
101 -10z"/>
<path d="M1430 2931 c0 -6 5 -13 10 -16 6 -3 10 1 10 9 0 9 -4 16 -10 16 -5 0
-10 -4 -10 -9z"/>
<path d="M1446 2892 c-7 -13 -4 -72 5 -72 4 0 6 18 6 40 -2 42 -3 45 -11 32z"/>
<path d="M2715 2660 c-62 -14 -130 -79 -106 -103 8 -8 11 -7 11 5 0 20 64 78
88 79 82 6 128 -16 157 -77 14 -29 15 -42 6 -63 l-12 -26 20 24 c14 19 17 31
10 54 -23 79 -96 124 -174 107z"/>
<path d="M2692 2623 c-15 -6 -52 -75 -52 -98 0 -25 17 -17 25 13 11 44 33 72
60 72 20 0 29 -11 53 -62 16 -35 32 -71 35 -80 6 -16 27 -26 27 -12 0 14 -72
159 -83 166 -13 9 -45 9 -65 1z"/>
<path d="M3570 2534 c0 -8 5 -12 10 -9 6 3 10 10 10 16 0 5 -4 9 -10 9 -5 0
-10 -7 -10 -16z"/>
<path d="M3570 2494 c0 -8 5 -12 10 -9 6 3 10 10 10 16 0 5 -4 9 -10 9 -5 0
-10 -7 -10 -16z"/>
<path d="M3565 2460 c3 -5 10 -10 16 -10 5 0 9 5 9 10 0 6 -7 10 -16 10 -8 0
-12 -4 -9 -10z"/>
<path d="M3613 2405 c1 -19 4 -35 7 -35 3 0 6 -8 6 -17 1 -10 4 -26 9 -35 6
-16 1 -18 -33 -18 -23 0 -43 -4 -46 -8 -6 -11 85 -10 101 1 6 4 14 3 17 -2 9
-14 -12 -24 -60 -27 -24 -2 -47 -4 -51 -5 -4 -1 -16 1 -26 6 -18 8 -35 0 -24
-11 3 -3 37 -8 75 -10 63 -3 71 -2 92 21 21 22 21 25 6 40 -9 9 -16 13 -17 8
0 -4 -5 3 -11 17 -14 32 -13 28 -22 73 -10 47 -24 48 -23 2z"/>
<path d="M3570 2414 c0 -14 3 -14 15 -4 8 7 15 14 15 16 0 2 -7 4 -15 4 -8 0
-15 -7 -15 -16z"/>
<path d="M3571 2381 c-10 -6 -9 -10 3 -14 8 -3 18 -2 21 3 8 13 -9 20 -24 11z"/>
<path d="M3585 2340 c-4 -6 -10 -8 -15 -5 -5 3 -11 1 -14 -4 -4 -5 7 -9 24 -9
29 1 39 11 21 23 -5 3 -12 1 -16 -5z"/>
<path d="M3529 2219 c-8 -5 -29 -9 -46 -9 -18 0 -33 -4 -33 -10 0 -5 11 -10
24 -10 19 0 23 -4 19 -21 -3 -12 -11 -18 -19 -15 -8 3 -14 -1 -14 -8 0 -8 8
-16 18 -18 13 -4 18 -13 17 -29 -1 -13 5 -32 13 -41 14 -16 13 -18 -6 -18 -12
0 -22 -5 -22 -10 0 -7 -6 -7 -19 0 -14 7 -22 7 -27 -1 -4 -8 -9 -7 -15 2 -6
11 -13 11 -26 3 -22 -14 -29 -42 -14 -57 8 -8 11 -4 11 16 0 27 22 38 35 17 5
-8 11 -8 20 0 9 8 15 8 20 0 9 -14 25 -13 25 3 0 7 10 13 21 14 12 1 18 -1 15
-4 -3 -4 1 -15 11 -25 14 -16 14 -18 1 -18 -9 0 -19 8 -22 17 -5 13 -9 14 -19
4 -9 -9 -9 -14 3 -21 12 -7 11 -10 -7 -17 -12 -4 -22 -11 -22 -15 -1 -5 -1
-17 -1 -28 0 -17 -3 -19 -19 -8 -11 7 -17 16 -15 20 3 4 -1 8 -9 8 -9 0 -14
10 -14 25 0 14 4 22 10 18 6 -4 7 -1 2 7 -6 10 -11 9 -22 -5 -17 -25 -17 -26
15 -64 l28 -34 -34 -38 c-19 -21 -39 -36 -45 -32 -6 3 -7 2 -4 -4 4 -5 -12
-25 -35 -44 -23 -19 -55 -46 -72 -61 -35 -32 -43 -33 -70 -13 -26 19 -62 19
-70 0 -9 -26 3 -42 43 -54 21 -6 68 -34 105 -63 59 -45 73 -51 119 -53 36 -1
75 -12 127 -37 41 -19 127 -51 190 -71 103 -32 133 -47 280 -144 91 -60 178
-113 195 -118 20 -7 38 -25 54 -55 23 -42 40 -60 58 -61 20 -2 77 -31 90 -47
24 -29 53 -96 53 -123 0 -14 13 -44 30 -65 92 -121 166 -236 240 -377 85 -160
166 -278 209 -306 23 -15 24 -15 13 4 -6 11 -21 31 -34 45 -47 50 -90 119
-223 365 -56 103 -159 257 -202 303 -7 7 -13 20 -13 28 0 22 0 21 -16 66 -17
50 -57 95 -100 113 -27 11 -48 45 -41 66 5 13 -31 36 -83 55 -30 10 -121 63
-202 116 -182 120 -202 130 -319 163 -105 30 -216 78 -281 123 -24 16 -72 44
-108 62 -61 31 -63 33 -45 47 11 8 35 22 54 30 37 16 92 63 74 63 -7 0 -15 -5
-18 -10 -3 -6 -21 -17 -38 -25 -32 -15 -32 -15 -7 2 14 10 48 41 77 69 32 32
55 48 61 42 6 -6 20 0 38 16 23 20 25 25 12 26 -10 0 -18 7 -18 16 0 9 5 12
13 8 8 -5 8 -2 -2 9 -12 15 -11 17 6 17 10 0 24 -5 30 -11 8 -8 25 3 62 39 51
50 58 69 51 137 -6 63 -85 137 -121 114z m95 -90 c19 -47 12 -99 -15 -122 -19
-15 -25 -16 -43 -4 -11 8 -24 28 -28 45 -5 18 -13 32 -18 32 -16 0 -11 30 5
36 16 6 11 24 -6 24 -6 0 -7 -5 -3 -11 4 -7 1 -10 -6 -7 -26 8 -21 27 7 30 19
2 29 10 31 23 3 16 1 18 -9 8 -17 -17 -29 -16 -29 1 0 44 92 -1 114 -55z m-49
-158 c8 -14 -30 -32 -49 -25 -9 3 -14 10 -11 15 3 4 12 6 19 3 8 -3 17 -1 21
5 8 13 12 14 20 2z m-85 -90 c0 -5 -7 -11 -15 -15 -9 -3 -15 0 -15 9 0 8 7 15
15 15 8 0 15 -4 15 -9z m-307 -207 c52 -27 59 -31 135 -75 70 -42 90 -61 55
-54 -10 2 -23 4 -28 4 -6 1 -48 28 -93 61 -45 33 -88 60 -96 60 -8 0 -18 5
-21 10 -9 15 13 12 48 -6z m1097 -598 c-1 -20 -1 -20 -20 3 -11 13 -20 30 -20
39 0 13 3 12 20 -3 11 -10 20 -28 20 -39z"/>
<path d="M3403 1795 c-9 -25 2 -27 22 -5 17 18 17 20 1 20 -9 0 -19 -7 -23
-15z"/>
</g>
</svg>
